<?xml version="1.0" encoding="UTF-8"?>
<svg width="32" height="32" viewBox="0 0 32 32" xmlns="http://www.w3.org/2000/svg">
  <!-- Barbecue grill base -->
  <rect x="3" y="19" width="26" height="9" rx="2" fill="#1a1a1a" stroke="#000" stroke-width="2"/>
  
  <!-- Grill grate -->
  <rect x="5" y="17" width="22" height="3" rx="1" fill="#555"/>
  <rect x="7" y="17" width="2" height="3" fill="#777"/>
  <rect x="13" y="17" width="2" height="3" fill="#777"/>
  <rect x="19" y="17" width="2" height="3" fill="#777"/>
  <rect x="25" y="17" width="2" height="3" fill="#777"/>
  
  <!-- Barbecue legs -->
  <rect x="5" y="28" width="3" height="3" fill="#1a1a1a"/>
  <rect x="24" y="28" width="3" height="3" fill="#1a1a1a"/>
  
  <!-- Fire/heat waves -->
  <path d="M 7 15 Q 8 12 9 15" stroke="#ff4500" stroke-width="2" fill="none" stroke-linecap="round"/>
  <path d="M 15 14 Q 16 11 17 14" stroke="#ff6b35" stroke-width="2.5" fill="none" stroke-linecap="round"/>
  <path d="M 23 15 Q 24 12 25 15" stroke="#ff4500" stroke-width="2" fill="none" stroke-linecap="round"/>
  
  <!-- Timer clock face -->
  <circle cx="16" cy="9" r="7" fill="#ffffff" stroke="#1a1a1a" stroke-width="2"/>
  
  <!-- Clock hands -->
  <line x1="16" y1="9" x2="16" y2="5" stroke="#1a1a1a" stroke-width="2.5" stroke-linecap="round"/>
  <line x1="16" y1="9" x2="19" y2="9" stroke="#1a1a1a" stroke-width="2" stroke-linecap="round"/>
  
  <!-- Clock center dot -->
  <circle cx="16" cy="9" r="1.5" fill="#1a1a1a"/>
  
  <!-- Clock markers (no text, just dots for better visibility) -->
  <circle cx="16" cy="3.5" r="0.8" fill="#1a1a1a"/>
  <circle cx="22.5" cy="9" r="0.8" fill="#1a1a1a"/>
  <circle cx="16" cy="14.5" r="0.8" fill="#1a1a1a"/>
  <circle cx="9.5" cy="9" r="0.8" fill="#1a1a1a"/>
</svg>